#!OML:ASF H:\ManfredETheater\Project 1\Capture day 1\Session 1\subject.ASF
:FULLY-SPECIFIED
:DEGREES
226
root -14.3335 16.5384 -46.856 -542.414 -26.5436 183.01
lowerback 11.5427 -1.94423 3.20711
upperback -2.12784 -1.95548 4.57871
thorax -8.72228 -1.06537 3.4742
lowerneck -20.5486 -1.49922 -1.83476
upperneck 6.63326 -1.43367 -2.14107
head 5.2791 -0.990953 -0.543341
rclavicle 1.856e-014 2.22639e-014
rhumerus -48.8532 2.05093 -80.6884
rradius 88.9038
rwrist -0.0751735
rhand -22.9976 11.0748
rfingers 7.12502
rthumb 3.44545 -18.8771
lclavicle 1.856e-014 2.22639e-014
lhumerus -48.2106 -15.0129 105.124
lradius 91.5419
lwrist 9.27431
lhand -20.7074 -18.5512
lfingers 7.12502
lthumb 5.65684 11.3533
rfemur -29.5817 -1.09335 27.5819
rtibia 62.1709
rfoot -22.2267 -13.3244
rtoes -26.2803
lfemur -20.2734 -1.36082 -10.3052
ltibia 96.4086
lfoot -3.10499 -12.7507
ltoes -8.42339
227
root -14.4583 16.5679 -47.2 -542.595 -26.5373 183.508
lowerback 11.4042 -1.77358 3.76223
upperback -2.19073 -1.65889 4.67052
thorax -8.73505 -0.954052 3.20208
lowerneck -20.6046 -1.53315 -1.85361
upperneck 6.77248 -1.44993 -2.28116
head 5.33157 -1.01124 -0.588156
rclavicle 5.34731e-014 3.18055e-014
rhumerus -48.1321 1.87133 -81.2872
rradius 90.6841
rwrist -1.05891
rhand -22.9202 11.2586
rfingers 7.12502
rthumb 3.52017 -18.6921
lclavicle 5.34731e-014 3.18055e-014
lhumerus -49.3938 -15.5282 105.36
lradius 91.4374
lwrist 8.55411
lhand -20.4792 -18.8321
lfingers 7.12502
lthumb 5.87717 11.0664
rfemur -27.8234 -1.22652 28.2813
rtibia 61.6993
rfoot -23.1622 -13.7741
rtoes -26.774
lfemur -22.6989 -0.992293 -10.3964
ltibia 96.3851
lfoot -4.79842 -11.9777
ltoes -9.07168
228
root -14.5832 16.6042 -47.5453 -542.725 -26.5491 183.979
lowerback 11.2174 -1.5916 4.28391
upperback -2.27912 -1.35542 4.74009
thorax -8.74272 -0.838042 2.9234
lowerneck -20.6108 -1.58797 -1.88327
upperneck 6.85724 -1.50221 -2.34602
head 5.35931 -1.04245 -0.610104
rclavicle 3.26131e-015 5.725e-014
rhumerus -47.5571 1.80288 -81.9443
rradius 92.6811
rwrist -2.25302
rhand -22.855 11.3652
rfingers 7.12502
rthumb 3.5831 -18.5844
lclavicle 3.26131e-015 5.725e-014
lhumerus -50.7284 -16.1102 105.615
lradius 91.6341
lwrist 7.43927
lhand -20.2932 -18.9865
lfingers 7.12502
lthumb 6.05674 10.9069
rfemur -26.051 -1.41784 28.9379
rtibia 61.0855
rfoot -23.9251 -14.0849
rtoes -27.1952
lfemur -25.0894 -0.65534 -10.5632
ltibia 95.9968
lfoot -6.4377 -11.198
ltoes -9.8729
229
root -14.7077 16.6476 -47.892 -542.805 -26.5886 184.42
lowerback 10.9897 -1.40177 4.76617
upperback -2.39301 -1.05033 4.7833
thorax -8.74935 -0.719554 2.63887
lowerneck -20.5756 -1.6728 -1.93768
upperneck 6.89557 -1.6016 -2.30756
head 5.36636 -1.08793 -0.599195
rclavicle 6.37602e-014 3.65764e-014
rhumerus -47.0762 1.83026 -82.6315
rradius 94.7621
rwrist -3.40995
rhand -22.8132 11.4281
rfingers 7.12502
rthumb 3.62352 -18.5208
lclavicle 6.37602e-014 3.65764e-014
lhumerus -52.1705 -16.7171 105.867
lradius 92.0457
lwrist 6.21425
lhand -20.127 -19.0504
lfingers 7.12502
lthumb 6.21725 10.8384
rfemur -24.2879 -1.66782 29.5522
rtibia 60.3796
rfoot -24.4468 -14.3198
rtoes -27.7944
lfemur -27.4492 -0.380918 -10.8066
ltibia 95.2421
lfoot -7.96769 -10.4372
ltoes -10.8174
230
root -14.8319 16.696 -48.2402 -542.861 -26.6484 184.823
lowerback 10.7377 -1.20254 5.19515
upperback -2.51361 -0.743303 4.79886
thorax -8.74392 -0.597451 2.355
lowerneck -20.524 -1.79327 -2.03033
upperneck 6.90103 -1.75231 -2.15671
head 5.36134 -1.14974 -0.551164
rclavicle -2.70099e-014 -2.38542e-014
rhumerus -46.6406 1.93633 -83.3215
rradius 96.8281
rwrist -4.31901
rhand -22.7847 11.4938
rfingers 7.12502
rthumb 3.65105 -18.4546
lclavicle -2.70099e-014 -2.38542e-014
lhumerus -53.66 -17.32 106.103
lradius 92.6012
lwrist 5.17126
lhand -19.9407 -19.0094
lfingers 7.12502
lthumb 6.39708 10.874
rfemur -22.5355 -1.95364 30.1089
rtibia 59.6303
rfoot -24.7092 -14.4478
rtoes -28.5219
lfemur -29.7096 -0.16765 -11.1181
ltibia 94.1288
lfoot -9.41248 -9.7162
ltoes -11.7697
231
root -14.9563 16.7482 -48.5895 -542.927 -26.7232 185.198
lowerback 10.4962 -0.997227 5.58395
upperback -2.63316 -0.434389 4.79016
thorax -8.73857 -0.472425 2.06929
lowerneck -20.4669 -1.94797 -2.15526
upperneck 6.88596 -1.95116 -1.91374
head 5.35027 -1.2282 -0.47333
rclavicle 6.70898e-015 3.33958e-014
rhumerus -46.2354 2.11556 -83.9959
rradius 98.8238
rwrist -4.88111
rhand -22.7457 11.5635
rfingers 7.12502
rthumb 3.68865 -18.3844
lclavicle 6.70898e-015 3.33958e-014
lhumerus -55.1599 -17.8933 106.316
lradius 93.2474
lwrist 4.54886
lhand -19.7038 -18.8561
lfingers 7.12502
lthumb 6.62576 11.0202
rfemur -20.7831 -2.26948 30.6102
rtibia 58.8627
rfoot -24.6442 -14.4716
rtoes -29.5711
lfemur -31.8194 -0.0132083 -11.476
ltibia 92.6601
lfoot -10.7437 -9.02491
ltoes -12.6668
